# xmcd
# 
# Track frame offsets:
#     150
#     33897
#     58680
#     93815
#     122927
#     145787
#     167065
#     197137
#     219585
# 
# Disc length: 3193
# 
# Revision: 3
# Processed by: cddbd v1.5.2PL0 Copyright (c) Steve Scherf et al.
# Submitted via: fre:ac v1.0.17
# 
DISCID=7c0c7709
DTITLE=Topaz - The Zone
DYEAR=2002
DGENRE=Jazz
TTITLE0=Minha Mente
TTITLE1=I Can See It In You
TTITLE2=Walkabout
TTITLE3=4th and D
TTITLE4=You and Me
TTITLE5=The Zone
TTITLE6=Naked
TTITLE7=Fat City Strut
TTITLE8=The World Is A Ghetto (feat. Caron Wheeler)
EXTD=YEAR: 2002
EXTT0=
EXTT1=
EXTT2=
EXTT3=
EXTT4=
EXTT5=
EXTT6=
EXTT7=
EXTT8=
PLAYORDER=
